# Vectary OBJ Export units=mm
mtllib Tree_1.mtl
o 000_Tree
g Tree
usemtl Default material_5298b356-970d-44ce-8caa-dde3c15df877
v 2.415 23.962 9.003
v 9.086 23.962 2.595
v 4.553 32.925 1.282
v 1.285 32.925 4.422
v 1.728 23.962 6.217
v 6.328 23.962 1.796
v 3.468 32.925 -3.118
v 6.870 23.962 -6.387
v 6.439 32.925 1.829
v 1.755 32.925 6.329
v -6.471 23.962 6.431
v -3.068 32.925 3.162
v 3.127 16.793 11.892
v 11.942 16.793 3.422
v 4.801 23.962 -4.398
v -4.401 23.962 4.442
v 4.884 32.925 -4.479
v -0.886 32.925 -4.378
v -2.016 23.962 -8.959
v 2.794 40.990 0.773
v 0.846 40.990 2.644
v -4.485 32.925 4.523
v -8.686 23.962 -2.550
v -4.154 32.925 -1.238
v 2.332 16.793 8.668
v 8.754 16.793 2.498
v 9.015 16.793 -8.448
v -8.616 16.793 8.492
v -1.328 23.962 -6.172
v -5.929 23.962 -1.752
v -1.356 32.925 -6.285
v 2.147 40.990 -1.849
v 3.791 40.990 1.062
v 1.095 40.990 3.652
v -1.748 40.990 1.893
v -6.040 32.925 -1.784
v 14.638 7.831 4.202
v 3.799 7.831 14.616
v 6.621 16.793 -6.147
v -6.221 16.793 6.192
v -2.728 16.793 -11.847
v -11.543 16.793 -3.378
v -0.447 40.990 -2.600
v 2.896 40.990 -2.568
v 0.200 57.122 0.022
v -2.496 40.990 2.612
v -2.394 40.990 -0.729
v 11.039 7.831 -10.392
v -10.639 7.831 10.436
v 0.727 10.519 2.161
v 2.316 10.519 0.635
v -1.932 16.793 -8.624
v -8.354 16.793 -2.454
v -0.695 40.990 -3.608
v -3.391 40.990 -1.018
v -3.399 7.831 -14.572
v 1.788 10.519 -1.504
v -14.239 7.831 -4.158
v -1.389 10.519 1.548
v -1.917 10.519 -0.590
v -0.328 10.519 -2.117
vn 0.63017 0.41511 0.65618
vn 0.63017 0.41511 0.65618
vn 0.63017 0.41511 0.65618
vn 0.63017 0.41511 0.65618
vn 0.00000 -1.00000 -0.00000
vn 0.00000 -1.00000 -0.00000
vn 0.00000 -1.00000 -0.00000
vn 0.00000 -1.00000 -0.00000
vn 0.88325 0.41512 -0.21806
vn 0.88325 0.41512 -0.21806
vn 0.88325 0.41512 -0.21806
vn 0.88325 0.41512 -0.21806
vn 0.00000 -1.00000 -0.00000
vn 0.00000 -1.00000 -0.00000
vn 0.00000 -1.00000 -0.00000
vn 0.00000 -1.00000 -0.00000
vn -0.25299 0.41498 0.87395
vn -0.25299 0.41498 0.87395
vn -0.25299 0.41498 0.87395
vn -0.25299 0.41498 0.87395
vn 0.56594 0.57694 0.58894
vn 0.56594 0.57694 0.58894
vn 0.56594 0.57694 0.58894
vn 0.56594 0.57694 0.58894
vn 0.00000 -1.00000 -0.00000
vn 0.00000 -1.00000 -0.00000
vn 0.00000 -1.00000 -0.00000
vn 0.00000 -1.00000 -0.00000
vn 0.00000 -1.00000 -0.00000
vn 0.00000 -1.00000 -0.00000
vn 0.00000 -1.00000 -0.00000
vn 0.00000 -1.00000 -0.00000
vn 0.00000 -1.00000 -0.00000
vn 0.00000 -1.00000 -0.00000
vn 0.00000 -1.00000 -0.00000
vn 0.00000 -1.00000 -0.00000
vn 0.25299 0.41498 -0.87395
vn 0.25299 0.41498 -0.87395
vn 0.25299 0.41498 -0.87395
vn 0.25299 0.41498 -0.87395
vn 0.64183 0.37690 0.66783
vn 0.64183 0.37690 0.66783
vn 0.64183 0.37690 0.66783
vn 0.64183 0.37690 0.66783
vn 0.00000 -1.00000 -0.00000
vn 0.00000 -1.00000 -0.00000
vn 0.00000 -1.00000 -0.00000
vn 0.00000 -1.00000 -0.00000
vn -0.88325 0.41512 0.21806
vn -0.88325 0.41512 0.21806
vn -0.88325 0.41512 0.21806
vn -0.88325 0.41512 0.21806
vn 0.00000 -1.00000 -0.00000
vn 0.00000 -1.00000 -0.00000
vn 0.00000 -1.00000 -0.00000
vn 0.00000 -1.00000 -0.00000
vn 0.79292 0.57694 -0.19598
vn 0.79292 0.57694 -0.19598
vn 0.79292 0.57694 -0.19598
vn 0.79292 0.57694 -0.19598
vn -0.22692 0.57680 0.78473
vn -0.22692 0.57680 0.78473
vn -0.22692 0.57680 0.78473
vn -0.22692 0.57680 0.78473
vn 0.00000 -1.00000 -0.00000
vn 0.00000 -1.00000 -0.00000
vn 0.00000 -1.00000 -0.00000
vn 0.00000 -1.00000 -0.00000
vn 0.00000 -1.00000 -0.00000
vn 0.00000 -1.00000 -0.00000
vn 0.00000 -1.00000 -0.00000
vn 0.00000 -1.00000 -0.00000
vn 0.00000 -1.00000 -0.00000
vn 0.00000 -1.00000 -0.00000
vn 0.00000 -1.00000 -0.00000
vn 0.00000 -1.00000 -0.00000
vn 0.89917 0.37707 -0.22204
vn 0.89917 0.37707 -0.22204
vn 0.89917 0.37707 -0.22204
vn 0.89917 0.37707 -0.22204
vn -0.63017 0.41511 -0.65618
vn -0.63017 0.41511 -0.65618
vn -0.63017 0.41511 -0.65618
vn -0.63017 0.41511 -0.65618
vn 0.00000 -1.00000 -0.00000
vn 0.00000 -1.00000 -0.00000
vn 0.00000 -1.00000 -0.00000
vn 0.00000 -1.00000 -0.00000
vn -0.25790 0.37685 0.88965
vn -0.25790 0.37685 0.88965
vn -0.25790 0.37685 0.88965
vn -0.25790 0.37685 0.88965
vn 0.00000 -1.00000 -0.00000
vn 0.00000 -1.00000 -0.00000
vn 0.00000 -1.00000 -0.00000
vn 0.00000 -1.00000 -0.00000
vn 0.59602 0.50902 0.62102
vn 0.59602 0.50902 0.62102
vn 0.59602 0.50902 0.62102
vn 0.59602 0.50902 0.62102
vn 0.00000 -1.00000 -0.00000
vn 0.00000 -1.00000 -0.00000
vn 0.00000 -1.00000 -0.00000
vn 0.00000 -1.00000 -0.00000
vn 0.00000 -1.00000 -0.00000
vn 0.00000 -1.00000 -0.00000
vn 0.00000 -1.00000 -0.00000
vn 0.00000 -1.00000 -0.00000
vn 0.22692 0.57680 -0.78473
vn 0.22692 0.57680 -0.78473
vn 0.22692 0.57680 -0.78473
vn 0.22692 0.57680 -0.78473
vn -0.79292 0.57694 0.19598
vn -0.79292 0.57694 0.19598
vn -0.79292 0.57694 0.19598
vn -0.79292 0.57694 0.19598
vn 0.00000 -1.00000 -0.00000
vn 0.00000 -1.00000 -0.00000
vn 0.00000 -1.00000 -0.00000
vn 0.00000 -1.00000 -0.00000
vn 0.00000 -1.00000 -0.00000
vn 0.00000 -1.00000 -0.00000
vn 0.00000 -1.00000 -0.00000
vn 0.00000 -1.00000 -0.00000
vn 0.25696 0.37695 -0.88988
vn 0.25696 0.37695 -0.88988
vn 0.25696 0.37695 -0.88988
vn 0.25696 0.37695 -0.88988
vn 0.00000 -1.00000 -0.00000
vn 0.00000 -1.00000 -0.00000
vn 0.00000 -1.00000 -0.00000
vn 0.00000 -1.00000 -0.00000
vn 0.67910 0.19703 0.70711
vn 0.67910 0.19703 0.70711
vn 0.67910 0.19703 0.70711
vn 0.00000 -1.00000 -0.00000
vn 0.00000 -1.00000 -0.00000
vn 0.00000 -1.00000 -0.00000
vn 0.00000 -1.00000 -0.00000
vn -0.89917 0.37707 0.22204
vn -0.89917 0.37707 0.22204
vn -0.89917 0.37707 0.22204
vn -0.89917 0.37707 0.22204
vn 0.83553 0.50932 -0.20613
vn 0.83553 0.50932 -0.20613
vn 0.83553 0.50932 -0.20613
vn 0.83553 0.50932 -0.20613
vn -0.23898 0.50897 0.82695
vn -0.23898 0.50897 0.82695
vn -0.23898 0.50897 0.82695
vn -0.23898 0.50897 0.82695
vn -0.03299 -0.99057 -0.13294
vn -0.13194 -0.99053 -0.03798
vn -0.19695 -0.97876 -0.05699
vn -0.04899 -0.97878 -0.19896
vn 0.00000 -1.00000 -0.00000
vn 0.00000 -1.00000 -0.00000
vn 0.00000 -1.00000 -0.00000
vn 0.00000 -1.00000 -0.00000
vn 0.00000 -1.00000 -0.00000
vn 0.00000 -1.00000 -0.00000
vn 0.00000 -1.00000 -0.00000
vn 0.00000 -1.00000 -0.00000
vn -0.56594 0.57694 -0.58894
vn -0.56594 0.57694 -0.58894
vn -0.56594 0.57694 -0.58894
vn -0.56594 0.57694 -0.58894
vn -0.64183 0.37690 -0.66783
vn -0.64183 0.37690 -0.66783
vn -0.64183 0.37690 -0.66783
vn -0.64183 0.37690 -0.66783
vn 0.00000 -1.00000 -0.00000
vn 0.00000 -1.00000 -0.00000
vn 0.00000 -1.00000 -0.00000
vn 0.00000 -1.00000 -0.00000
vn 0.95184 0.19697 -0.23496
vn 0.95184 0.19697 -0.23496
vn 0.95184 0.19697 -0.23496
vn -0.27290 0.19693 0.94167
vn -0.27290 0.19693 0.94167
vn -0.27290 0.19693 0.94167
vn 0.00000 -1.00000 -0.00000
vn 0.00000 -1.00000 -0.00000
vn 0.00000 -1.00000 -0.00000
vn 0.00000 -1.00000 -0.00000
vn 0.23898 0.50897 -0.82695
vn 0.23898 0.50897 -0.82695
vn 0.23898 0.50897 -0.82695
vn 0.23898 0.50897 -0.82695
vn -0.13194 -0.99053 -0.03798
vn -0.09896 -0.99055 0.09496
vn -0.14796 -0.97875 0.14196
vn -0.19695 -0.97876 -0.05699
vn -0.83553 0.50932 0.20613
vn -0.83553 0.50932 0.20613
vn -0.83553 0.50932 0.20613
vn -0.83553 0.50932 0.20613
vn 0.09896 -0.99055 -0.09496
vn -0.03299 -0.99057 -0.13294
vn -0.04899 -0.97878 -0.19896
vn 0.14796 -0.97875 -0.14196
vn 0.13194 -0.99053 0.03798
vn 0.03299 -0.99057 0.13294
vn 0.09896 -0.99055 -0.09496
vn -0.09896 -0.99055 0.09496
vn -0.03299 -0.99057 -0.13294
vn -0.13194 -0.99053 -0.03798
vn 0.00000 -1.00000 -0.00000
vn 0.00000 -1.00000 -0.00000
vn 0.00000 -1.00000 -0.00000
vn 0.00000 -1.00000 -0.00000
vn 0.00000 -1.00000 -0.00000
vn 0.00000 -1.00000 -0.00000
vn 0.00000 -1.00000 -0.00000
vn 0.00000 -1.00000 -0.00000
vn 0.27290 0.19693 -0.94167
vn 0.27290 0.19693 -0.94167
vn 0.27290 0.19693 -0.94167
vn -0.95184 0.19697 0.23496
vn -0.95184 0.19697 0.23496
vn -0.95184 0.19697 0.23496
vn -0.59602 0.50902 -0.62102
vn -0.59602 0.50902 -0.62102
vn -0.59602 0.50902 -0.62102
vn -0.59602 0.50902 -0.62102
vn -0.09896 -0.99055 0.09496
vn 0.03299 -0.99057 0.13294
vn 0.04899 -0.97878 0.19896
vn -0.14796 -0.97875 0.14196
vn 0.14796 -0.97875 -0.14196
vn 0.19695 -0.97876 0.05699
vn 0.13194 -0.99053 0.03798
vn 0.09896 -0.99055 -0.09496
vn 0.03299 -0.99057 0.13294
vn 0.13194 -0.99053 0.03798
vn 0.19695 -0.97876 0.05699
vn 0.04899 -0.97878 0.19896
vn -0.67910 0.19703 -0.70711
vn -0.67910 0.19703 -0.70711
vn -0.67910 0.19703 -0.70711
f 2//2 3//3 4//4 1//1 
f 6//6 2//7 1//8 5//5 
f 3//10 2//11 8//12 7//9 
f 10//14 4//15 3//16 9//13 
f 1//18 4//19 12//20 11//17 
f 14//22 6//23 5//24 13//21 
f 2//26 6//27 15//28 8//25 
f 5//30 1//31 11//32 16//29 
f 7//34 17//35 9//36 3//33 
f 7//38 8//39 19//40 18//37 
f 20//42 21//43 10//44 9//41 
f 22//46 12//47 4//48 10//45 
f 11//50 12//51 24//52 23//49 
f 26//54 14//55 13//56 25//53 
f 6//58 14//59 27//60 15//57 
f 13//62 5//63 16//64 28//61 
f 8//66 15//67 29//68 19//65 
f 16//70 11//71 23//72 30//69 
f 18//74 31//75 17//76 7//73 
f 32//78 20//79 9//80 17//77 
f 23//82 24//83 18//84 19//81 
f 34//86 21//87 20//88 33//85 
f 21//90 35//91 22//92 10//89 
f 36//94 24//95 12//96 22//93 
f 26//98 25//99 38//100 37//97 
f 14//102 26//103 39//104 27//101 
f 25//106 13//107 28//108 40//105 
f 15//110 27//111 41//112 29//109 
f 28//114 16//115 30//116 42//113 
f 30//118 23//119 19//120 29//117 
f 31//122 18//123 24//124 36//121 
f 43//126 32//127 17//128 31//125 
f 33//130 20//131 32//132 44//129 
f 46//137 35//138 21//139 34//136 
f 35//141 47//142 36//143 22//140 
f 39//145 26//146 37//147 48//144 
f 25//149 40//150 49//151 38//148 
f 51//153 37//154 38//155 50//152 
f 27//157 39//158 52//159 41//156 
f 40//161 28//162 42//163 53//160 
f 42//165 30//166 29//167 41//164 
f 47//169 43//170 31//171 36//168 
f 43//173 54//174 44//175 32//172 
f 35//183 46//184 55//185 47//182 
f 52//187 39//188 48//189 56//186 
f 57//191 48//192 37//193 51//190 
f 40//195 53//196 58//197 49//194 
f 50//199 38//200 49//201 59//198 
f 61//203 57//205 51//207 50//206 59//204 60//202 
f 53//209 42//210 41//211 52//208 
f 47//213 55//214 54//215 43//212 
f 53//223 52//224 56//225 58//222 
f 61//227 56//228 48//229 57//226 
f 58//231 60//232 59//233 49//230 
f 60//235 58//236 56//237 61//234 
f 34//133 33//134 45//135 
f 33//176 44//177 45//178 
f 46//179 34//180 45//181 
f 45//216 44//217 54//218 
f 45//219 55//220 46//221 
f 45//238 54//239 55//240 
o 001__Trunk
g _Trunk
usemtl Default material 1_0a6fe0d6-2d3e-4a54-9158-48ab20dd7d0c
v -1.389 10.519 1.548
v 1.788 10.519 -1.504
v -0.328 10.519 -2.117
v 0.727 10.519 2.161
v 2.316 10.519 0.635
v -1.917 10.519 -0.590
v -0.328 -0.286 -2.117
v -1.917 -0.286 -0.590
v -1.389 -0.286 1.548
v 1.788 -0.286 -1.504
v 2.316 -0.286 0.635
v 0.727 -0.286 2.161
vn 0.00000 1.00000 0.00000
vn 0.00000 1.00000 0.00000
vn 0.00000 1.00000 0.00000
vn 0.00000 1.00000 0.00000
vn 0.00000 1.00000 0.00000
vn 0.00000 1.00000 0.00000
vn -0.69297 0.00000 -0.72097
vn -0.69297 0.00000 -0.72097
vn -0.69297 0.00000 -0.72097
vn -0.69297 0.00000 -0.72097
vn -0.97079 -0.00000 0.23995
vn -0.97079 -0.00000 0.23995
vn -0.97079 -0.00000 0.23995
vn -0.97079 -0.00000 0.23995
vn 0.27789 0.00000 -0.96061
vn 0.27789 0.00000 -0.96061
vn 0.27789 0.00000 -0.96061
vn 0.27789 0.00000 -0.96061
vn 0.97079 0.00000 -0.23995
vn 0.97079 0.00000 -0.23995
vn 0.97079 0.00000 -0.23995
vn 0.97079 0.00000 -0.23995
vn 0.69297 -0.00000 0.72097
vn 0.69297 -0.00000 0.72097
vn 0.69297 -0.00000 0.72097
vn 0.69297 -0.00000 0.72097
vn -0.27789 -0.00000 0.96061
vn -0.27789 -0.00000 0.96061
vn -0.27789 -0.00000 0.96061
vn -0.27789 -0.00000 0.96061
vn 0.00000 -1.00000 -0.00000
vn 0.00000 -1.00000 -0.00000
vn 0.00000 -1.00000 -0.00000
vn 0.00000 -1.00000 -0.00000
vn 0.00000 -1.00000 -0.00000
vn 0.00000 -1.00000 -0.00000
f 64//243 67//246 62//241 65//244 66//245 63//242 
f 64//248 68//249 69//250 67//247 
f 67//252 69//253 70//254 62//251 
f 63//256 71//257 68//258 64//255 
f 66//260 72//261 71//262 63//259 
f 65//264 73//265 72//266 66//263 
f 62//268 70//269 73//270 65//267 
f 68//272 71//274 72//276 73//275 70//273 69//271 
